<svg xmlns="http://www.w3.org/2000/svg" width="103" height="47" viewBox="-10 -10 103 47"><title>displaytag-logo-horizontal 2</title><desc>Created with Sketch.</desc><g transform="translate(1 1) translate(.222 .309)" fill="none"><path d="M0 0H80.542V25.484H0z"/><text fill="#008000" font-family="Baha" font-size="16.006"><tspan x=".675" y="18.169">displaytag</tspan></text><path d="M57.48193,2.65874 C58.47013,2.46714 59.45753,2.27564 60.44533,2.08404 C61.22703,1.93234 61.88183,2.10624 62.62753,2.00294 C63.43723,1.89144 64.85673,1.38454 65.63923,1.58774 C65.99093,1.67874 65.74933,2.10384 66.22163,2.07104 C66.88663,2.02514 67.55133,1.97894 68.21663,1.93274 C69.30673,1.85754 70.21013,1.91224 71.10663,2.05934 C77.01593,2.07274 77.65453,8.61644 77.34473,13.40644 C77.44603,15.43674 77.58743,15.70644 78.17553,18.06154 C79.03063,21.48594 77.93733,23.26374 76.21373,23.71674 C74.99533,24.03704 72.85753,23.68184 72.44643,21.94724 C71.86503,19.49404 75.06373,17.90364 76.74183,20.16814 C75.65563,16.02094 74.13163,13.33134 70.46593,13.59164 C69.07763,13.32814 68.16203,15.66114 66.11233,15.76544 C66.85843,13.45834 69.12363,11.77984 71.27093,10.89084 C70.54113,10.37894 69.92863,9.07854 69.13983,8.96144 C66.71523,9.00344 65.18063,11.19344 64.43413,13.50064 C64.49273,13.10624 64.49273,13.10624 64.55163,12.71184 C64.09863,13.04764 64.09863,13.04764 63.64533,13.38314 C63.99773,11.01744 65.80963,9.67474 67.62113,8.33244 C66.43823,8.15644 65.64983,8.03894 64.52553,7.46924 C64.40843,8.25734 63.44463,10.07024 63.13023,10.64704 C62.44833,10.59444 63.98193,12.17564 62.18623,10.69994 C62.18693,10.70064 62.50093,9.91254 63.34233,7.29314 C62.21873,6.72204 61.09403,6.15224 59.96483,5.51164 C58.91493,4.83434 58.02733,3.97534 57.48193,2.65874 L57.48193,2.65874 Z" stroke="#68B92E" stroke-width=".353" fill="#ABD305"/></g></svg>
