<?xml version="1.0" encoding="utf-8"?>
<!-- Generator: Adobe Illustrator 16.0.0, SVG Export Plug-In . SVG Version: 6.00 Build 0)  -->
<!DOCTYPE svg PUBLIC "-//W3C//DTD SVG 1.1//EN" "http://www.w3.org/Graphics/SVG/1.1/DTD/svg11.dtd">
<svg version="1.1" id="Layer_1" xmlns="http://www.w3.org/2000/svg" xmlns:xlink="http://www.w3.org/1999/xlink" x="0px" y="0px"
	 width="126px" height="126px" viewBox="0 0 126 126" enable-background="new 0 0 126 126" xml:space="preserve">
<path d="M102.745,48.964h-2.449V37.146c0-0.074-0.012-0.148-0.021-0.223c-0.004-0.469-0.154-0.93-0.475-1.295L80.133,13.163
	c-0.006-0.006-0.012-0.008-0.016-0.014c-0.117-0.131-0.254-0.24-0.398-0.334c-0.043-0.029-0.086-0.053-0.131-0.078
	c-0.125-0.068-0.258-0.125-0.395-0.166c-0.037-0.01-0.07-0.025-0.107-0.035c-0.148-0.035-0.303-0.057-0.459-0.057H30.295
	c-2.207,0-4,1.795-4,4v32.484h-2.449c-3.157,0-5.717,2.559-5.717,5.717v29.73c0,3.156,2.56,5.717,5.717,5.717h2.449v20.352
	c0,2.205,1.793,4,4,4h66c2.205,0,4-1.795,4-4V90.128h2.449c3.157,0,5.717-2.561,5.717-5.717v-29.73
	C108.461,51.522,105.902,48.964,102.745,48.964z M30.295,16.479h46.332v20.465c0,1.105,0.896,2,2,2h17.668v10.02h-66V16.479z
	 M70.817,71.016c-3.931-1.369-6.495-3.543-6.495-6.984c0-4.037,3.37-7.125,8.952-7.125c2.666,0,4.632,0.561,6.035,1.193
	l-1.193,4.316c-0.947-0.455-2.632-1.123-4.948-1.123c-2.316,0-3.439,1.053-3.439,2.281c0,1.51,1.333,2.176,4.386,3.334
	c4.176,1.545,6.142,3.721,6.142,7.055c0,3.967-3.054,7.336-9.547,7.336c-2.702,0-5.369-0.701-6.703-1.439l1.087-4.422
	c1.439,0.736,3.651,1.475,5.932,1.475c2.458,0,3.755-1.018,3.755-2.563C74.782,72.877,73.659,72.033,70.817,71.016z M61.764,76.455
	v4.494H46.986V57.291h5.372v19.164H61.764z M29.826,80.949h-6.107l6.844-11.971l-6.599-11.688h6.143l2.07,4.318
	c0.702,1.439,1.229,2.596,1.791,3.932h0.068c0.563-1.51,1.019-2.563,1.614-3.932l2.001-4.318h6.107l-6.669,11.547l7.021,12.111
	h-6.177l-2.142-4.283c-0.876-1.648-1.438-2.877-2.105-4.246h-0.07c-0.492,1.369-1.087,2.598-1.825,4.246L29.826,80.949z
	 M96.295,109.396h-66V90.128h66V109.396z M96.331,80.949l-2.142-4.283c-0.876-1.648-1.438-2.877-2.105-4.246h-0.069
	c-0.491,1.369-1.089,2.598-1.827,4.246l-1.964,4.283h-6.108l6.844-11.971l-6.599-11.688h6.143l2.072,4.318
	c0.702,1.439,1.227,2.596,1.789,3.932h0.07c0.561-1.51,1.016-2.563,1.614-3.932l2-4.318h6.108l-6.668,11.547l7.019,12.111H96.331z"
	/>
</svg>
