<?xml version="1.0" encoding="utf-8"?>
<!-- Generator: Adobe Illustrator 16.0.0, SVG Export Plug-In . SVG Version: 6.00 Build 0)  -->
<!DOCTYPE svg PUBLIC "-//W3C//DTD SVG 1.1//EN" "http://www.w3.org/Graphics/SVG/1.1/DTD/svg11.dtd">
<svg version="1.1" id="Layer_1" xmlns="http://www.w3.org/2000/svg" xmlns:xlink="http://www.w3.org/1999/xlink" x="0px" y="0px"
	 width="126px" height="126px" viewBox="0 0 126 126" enable-background="new 0 0 126 126" xml:space="preserve">
<path d="M103.457,49.041h-2.449V37.222c0-0.074-0.012-0.148-0.021-0.223c-0.004-0.469-0.154-0.93-0.475-1.295L80.846,13.24
	c-0.006-0.006-0.012-0.008-0.016-0.014c-0.117-0.131-0.254-0.24-0.398-0.334c-0.043-0.029-0.086-0.053-0.131-0.078
	c-0.125-0.068-0.258-0.125-0.395-0.166c-0.037-0.01-0.07-0.025-0.107-0.035c-0.148-0.035-0.303-0.057-0.459-0.057H31.008
	c-2.207,0-4,1.795-4,4v32.484h-2.449c-3.157,0-5.717,2.559-5.717,5.717v29.73c0,3.156,2.56,5.717,5.717,5.717h2.449v20.352
	c0,2.205,1.793,4,4,4h66c2.205,0,4-1.795,4-4V90.205h2.449c3.157,0,5.717-2.561,5.717-5.717v-29.73
	C109.174,51.599,106.614,49.041,103.457,49.041z M31.008,16.556H77.34v20.465c0,1.105,0.896,2,2,2h17.668v10.02h-66V16.556z
	 M61.119,70.818c-4.963-1.729-8.197-4.475-8.197-8.816c0-5.098,4.253-8.998,11.298-8.998c3.369,0,5.85,0.709,7.622,1.508
	l-1.505,5.451c-1.197-0.578-3.323-1.42-6.249-1.42c-2.924,0-4.342,1.33-4.342,2.881c0,1.906,1.683,2.748,5.54,4.211
	c5.273,1.949,7.754,4.695,7.754,8.906c0,5.006-3.854,9.262-12.053,9.262c-3.412,0-6.781-0.889-8.464-1.818l1.373-5.584
	c1.818,0.932,4.609,1.861,7.49,1.861c3.102,0,4.742-1.285,4.742-3.236C66.127,73.164,64.708,72.101,61.119,70.818z M25.932,68.867
	c0-10.191,7.269-15.863,16.307-15.863c3.501,0,6.16,0.709,7.357,1.33l-1.375,5.361c-1.373-0.574-3.28-1.105-5.672-1.105
	c-5.362,0-9.526,3.232-9.526,9.879c0,5.982,3.544,9.748,9.572,9.748c2.037,0,4.297-0.443,5.626-0.975l1.02,5.273
	c-1.241,0.621-4.032,1.287-7.666,1.287C31.25,83.802,25.932,77.375,25.932,68.867z M97.008,109.472h-66V90.205h66V109.472z
	 M92.54,83.357h-7.887l-9.572-29.865h7.401l3.633,12.631c1.02,3.543,1.95,6.955,2.66,10.678h0.132
	c0.753-3.59,1.683-7.135,2.703-10.547l3.811-12.762h7.18L92.54,83.357z"/>
</svg>
